<?xml version="1.0" encoding="utf-8"?>
<!-- Generator: Adobe Illustrator 21.1.0, SVG Export Plug-In . SVG Version: 6.00 Build 0)  -->
<svg version="1.1" id="Entrada_Logo_1_" xmlns="http://www.w3.org/2000/svg" xmlns:xlink="http://www.w3.org/1999/xlink" x="0px"
	 y="0px" viewBox="0 0 580 90.5" style="enable-background:new 0 0 580 90.5;" xml:space="preserve">
<style type="text/css">
	.st0{fill:#FFFFFF;}
	.st1{fill:#57B856;}
</style>
<g>
	<path class="st0" d="M316.8,49.2c-1.1-3.9-2.8-7.2-5.1-9.9c-2.4-2.7-5.4-4.8-9.2-6.3c-3.8-1.5-8.3-2.2-13.6-2.2
		c-9.7,0-17.1,2.8-22.2,8.4s-7.7,13.3-7.7,23v20.9h-22c-2.5,0-4.9-0.3-7.4-1c-2.5-0.6-4.7-1.8-6.6-3.4c-2-1.6-3.6-3.8-4.8-6.4
		s-1.9-5.9-1.9-9.9V44.5H249V39h-32.7V25.7c0-3.3,0-6.1,0.1-8.4s0.4-4.2,0.9-5.7s1.3-2.6,2.4-3.4c1.1-0.8,2.6-1.3,4.5-1.6h38.2V0.1
		h-59.8v58.6c0,9.7,3,17.3,8.9,22.9s14.4,8.4,25.6,8.5h35.7V58.6c0-4,0.4-7.3,1.2-10.1c0.8-2.7,1.9-4.9,3.4-6.5s3.3-2.7,5.3-3.3
		c2.1-0.6,4.3-0.9,6.8-0.8c2.5-0.1,4.7,0.2,6.6,0.9s3.5,1.8,4.8,3.4c1.3,1.6,2.2,3.7,2.9,6.4c0.6,2.7,1,6,1,10v31.5h13.8V62.3
		C318.4,57.5,317.8,53.1,316.8,49.2"/>
	<polygon class="st0" points="357.6,37.1 343.7,37.1 343.7,90.3 330.5,90.3 330.5,37.1 316.5,37.1 316.5,30.1 330.5,30.1 330.5,0.5 
		343.7,0.5 343.7,30.1 357.6,30.1 	"/>
	<path class="st0" d="M392.9,30.4c1,0,1.9,0,2.8,0.1v6.2c-1-0.2-2-0.3-3-0.3s-2-0.1-3-0.1c-2.5-0.1-4.9,0.2-7.4,0.9
		s-4.7,1.8-6.7,3.4c-2,1.6-3.6,3.7-4.8,6.4c-1.2,2.7-1.9,6-1.9,10v33.1h-13.8V61.9c0-9.7,3-17.4,9-23s14.7-8.4,26.1-8.4h2.7V30.4z"
		/>
	<path class="st0" d="M451.7,90.2h-13.9v-0.4l0.1-12c-1.4,2.5-2.7,4.5-4,6.1s-2.7,2.9-4,3.8c-1.4,0.9-2.8,1.6-4.4,1.9
		c-1.6,0.4-3.2,0.5-5,0.5c-5.3,0-9.7-0.7-13.4-2c-3.7-1.4-6.7-3.3-9.1-5.9s-4.2-5.7-5.4-9.4c-1.2-3.7-1.9-7.8-2-12.4
		c0.2-4.6,0.8-8.8,2-12.4c1.2-3.7,3-6.8,5.4-9.4c2.4-2.6,5.4-4.6,9.1-6c3.7-1.4,8.1-2.1,13.4-2.1c5.5,0,10.2,0.7,14.1,2.1
		c3.9,1.4,7,3.4,9.5,6s4.3,5.7,5.5,9.4s1.9,7.8,2,12.4v1V65v8.6v16.3L451.7,90.2L451.7,90.2z M437.9,58.3c0-4-0.4-7.3-1.2-10
		c-0.8-2.7-1.9-4.8-3.4-6.4c-1.5-1.6-3.3-2.7-5.3-3.4c-2.1-0.7-4.4-1-6.8-0.9c-2.5-0.1-4.7,0.2-6.8,0.8c-2.1,0.6-3.9,1.8-5.3,3.4
		c-1.5,1.6-2.6,3.8-3.4,6.5s-1.2,6.1-1.2,10.1v4.2c0,4,0.4,7.3,1.2,10.1c0.8,2.7,1.9,4.9,3.4,6.5s3.3,2.7,5.3,3.4
		c2.1,0.6,4.3,0.9,6.8,0.8c5,0.2,9.1-1.9,12.1-6.2c3.1-4.3,4.6-10.4,4.6-18.4L437.9,58.3L437.9,58.3z"/>
	<path class="st0" d="M513.8,72.7c-1.2,3.7-3,6.8-5.5,9.4s-5.6,4.6-9.5,6s-8.6,2.1-14.1,2.1c-5.3,0-9.7-0.7-13.4-2.1
		c-3.7-1.4-6.7-3.4-9.1-6s-4.2-5.7-5.4-9.4c-1.2-3.7-1.9-7.8-2-12.4c0.2-4.6,0.8-8.8,2-12.6c1.2-3.7,3-7,5.4-9.6
		c2.4-2.7,5.4-4.7,9.1-6.2s8.1-2.2,13.4-2.2c3.6,0,6.8,0.4,9.5,1.3c2.8,0.8,5.3,1.8,7.6,2.9L502,0.4h13.8v13.9v13.6v12.4v10.2v7.1
		v2.8C515.7,64.9,515,69.1,513.8,72.7 M500.9,48.2c-0.8-2.8-1.9-5-3.4-6.7s-3.3-3-5.3-3.7c-2.1-0.8-4.3-1.1-6.8-1
		c-2.5-0.1-4.8,0.2-6.8,1c-2.1,0.7-3.8,1.9-5.3,3.7c-1.5,1.7-2.6,4-3.4,6.8s-1.2,6.2-1.2,10.2v4.2c0,4,0.4,7.3,1.2,10.1
		c0.8,2.7,1.9,4.9,3.4,6.5s3.3,2.7,5.3,3.4c2.1,0.6,4.3,0.9,6.8,0.8c2.5,0.1,4.7-0.2,6.8-0.9c2.1-0.7,3.8-1.8,5.3-3.4
		s2.6-3.7,3.4-6.4c0.8-2.7,1.2-6,1.2-10v-4.2C502.1,54.3,501.7,50.9,500.9,48.2"/>
	<path class="st0" d="M580,90.2h-13.9v-0.4l0.1-12c-1.4,2.5-2.7,4.5-4,6.1s-2.7,2.9-4,3.8c-1.4,0.9-2.8,1.6-4.4,1.9
		c-1.6,0.4-3.2,0.5-5,0.5c-5.3,0-9.7-0.7-13.4-2c-3.7-1.4-6.7-3.3-9.1-5.9c-2.4-2.6-4.2-5.7-5.4-9.4c-1.2-3.7-1.9-7.8-2-12.4
		c0.2-4.6,0.8-8.8,2-12.4c1.2-3.7,3-6.8,5.4-9.4c2.4-2.6,5.4-4.6,9.1-6c3.7-1.4,8.1-2.1,13.4-2.1c5.5,0,10.2,0.7,14.1,2.1
		c3.9,1.4,7,3.4,9.5,6s4.3,5.7,5.5,9.4s1.9,7.8,2,12.4v1V65v8.6v16.3v0.3H580z M566.2,58.3c0-4-0.4-7.3-1.2-10s-1.9-4.8-3.4-6.4
		c-1.5-1.6-3.3-2.7-5.3-3.4c-2.1-0.7-4.3-1-6.8-0.9c-2.5-0.1-4.7,0.2-6.8,0.8s-3.8,1.8-5.3,3.4c-1.5,1.6-2.6,3.8-3.4,6.5
		c-0.8,2.7-1.2,6.1-1.2,10.1v4.2c0,4,0.4,7.3,1.2,10.1c0.8,2.7,1.9,4.9,3.4,6.5s3.2,2.7,5.3,3.4c2.1,0.6,4.3,0.9,6.8,0.8
		c5,0.2,9.1-1.9,12.1-6.2c3.1-4.3,4.6-10.4,4.6-18.4L566.2,58.3L566.2,58.3z"/>
	<path class="st1" d="M177.6,90.5v-0.4v-0.8l-0.1-1.6c-0.1-2.2-0.2-4.4-0.3-6.6l-1-6.5c-1.6-8.6-4.1-17.2-8.3-25
		c-7.9-15.8-20.6-29.1-35.7-37.7c-0.9-0.5-1.8-1.1-2.8-1.6l-2.9-1.4c-2-0.9-3.9-2-5.9-2.6c-2-0.7-4-1.4-6.1-2.1
		c-2-0.7-4.1-1.1-6.2-1.6c-4-1.2-8.5-1.5-12.8-2.1c-2-0.1-3.9-0.2-5.8-0.2L86.9,0h-0.7h-0.4H85l-1.5,0.1c-2,0.1-4.1,0.3-6.1,0.4
		c-2,0.3-4,0.7-6,1l-3,0.5c-1,0.2-1.9,0.5-2.9,0.8c-1.9,0.5-3.8,1.1-5.7,1.6c-7.4,2.7-14.4,5.8-20.6,10c-3.2,1.9-6,4.3-8.8,6.5
		c-1.5,1.1-2.6,2.4-4,3.6c-1.3,1.2-2.6,2.4-3.7,3.7C18.1,33.4,14,38.8,11,44.4c-0.8,1.4-1.5,2.8-2.3,4.1c-0.6,1.4-1.3,2.8-1.9,4.2
		S5.5,55.5,5,56.9s-0.9,2.8-1.3,4.2s-0.9,2.7-1.2,4.1s-0.6,2.7-0.9,4.1c-0.3,1.3-0.6,2.6-0.8,4c-0.1,1.3-0.3,2.7-0.4,3.9
		C0.3,78.5,0.1,79.8,0,81c-0.2,1.3,0,2.4-0.1,3.6c0,1.2,0,2.3,0,3.4c0,0.6,0,1.1,0,1.7v0.8h4.4c0-0.2,0-0.4,0.1-0.5
		c0.1-0.5,0.1-1.1,0.2-1.6C4.8,87.3,4.9,86.1,5,85s0.2-2.4,0.4-3.5c0.2-1.1,0.5-2.3,0.7-3.4C8,68.9,11.9,58.6,18.3,49
		s15.4-18.6,26.8-25.1c5.5-3.4,11.9-5.7,18.3-7.8c1.7-0.4,3.3-0.7,5-1.1c0.8-0.2,1.7-0.4,2.5-0.6l2.6-0.3c1.7-0.2,3.4-0.5,5.2-0.7
		c1.7-0.1,3.5-0.1,5.2-0.1l2.3-0.1l2.9,0.2c1.9,0.1,3.9,0.2,5.7,0.4c3.4,0.7,6.7,0.9,10.2,2.1c7,1.7,13.6,4.7,19.9,8.4
		c6.4,3.6,12,8.5,17.1,13.8c4.4,4.5,8,9.7,11,15.2c-3.6-4-7.7-7.5-12.2-10.3c-4.5-2.9-9.5-4.8-14.5-6.3c-2.6-0.6-5-1.2-7.9-1.5
		l-2.1-0.2l-1-0.1h-0.8c-1,0-2.1,0-3.1,0h-0.8c0.4,0-0.7,0-0.6,0h-0.1h-0.2h-0.5l-1.8,0.2c-1.2,0.1-2.5,0.2-3.7,0.4
		c-2.4,0.5-4.8,0.9-7,1.7c-4.6,1.3-8.8,3.4-12.6,5.8c-7.6,5-13.2,11.4-16.9,17.9c-3.7,6.6-5.5,13.3-6,19.1c-0.2,3-0.3,6,0.1,8.2
		c0.1,0.6,0.1,1.1,0.2,1.7v0.4v0.1c0-0.1,0,0.1,0,0.2h5.9l0.1-0.3c0.1-0.6,0.2-1.1,0.3-1.7c0.4-2.4,1.1-4.5,1.9-6.7
		c1.7-4.6,4.4-9.3,8.2-13.6c3.8-4.2,8.7-7.9,14.3-10.4c2.9-1.1,5.8-2.2,9-2.6c1.5-0.3,3.1-0.3,4.7-0.5c0.8-0.1,1.6,0,2.4,0h1.2h0.2
		l0.7,0.1c1,0.1,2,0.2,3.1,0.3l0.8,0.1l0.5,0.1l1,0.2c1.3,0.2,2.9,0.8,4.4,1.2c0.8,0.2,1.5,0.6,2.3,0.9c0.8,0.3,1.5,0.6,2.2,1.1
		c0.7,0.4,1.5,0.7,2.2,1.1l2.1,1.3c5.4,3.8,9.9,9,12.5,15c1.3,3,2.4,6.2,2.8,9.4l0.2,1.2l0.1,1.2l0.1,1.2l0.1,0.6v0.3v0.1l0,0l0,0
		l0,0l0,0L177.6,90.5L177.6,90.5z M144.7,90.2L144.7,90.2c0-0.2,0-0.2,0-0.2l0,0C144.7,90,144.7,90.1,144.7,90.2"/>
</g>
</svg>
