<svg width="16" height="16" xmlns="http://www.w3.org/2000/svg" viewBox="0 0 60 60" xml:space="preserve">
  <path
    style="fill:#FFEB39;"
    d="M33,4.074c-8.167,4.333-23,0-23,0v30c0,0,14.833,4.333,23,0c8.167-4.333,19,0,19,0v-30
      C52,4.074,41.167-0.259,33,4.074z"
  />
  <path
    style="fill:#424A60;"
    d="M9,0C8.448,0,8,0.447,8,1v3v55c0,0.553,0.448,1,1,1s1-0.447,1-1V4V1C10,0.447,9.552,0,9,0z"
  />
  <path
    style="fill:#FFEB39;"
    d="M36,2.879c-1.022,0.292-2.03,0.681-3,1.196c-3.099,1.644-7.156,2.039-11,1.898v30
      c3.844,0.141,7.901-0.254,11-1.898c0.97-0.515,1.978-0.904,3-1.196V2.879z"
  />
</svg>
