<svg width="16" height="16" viewBox="0 0 16 16" fill="none" xmlns="http://www.w3.org/2000/svg">
  <g opacity="0.6">
    <path fill-rule="evenodd" clip-rule="evenodd" d="M1.42716 8C1.50002 8.12591 1.59662 8.28637 1.71628 8.47165C2.02362 8.94754 2.47878 9.5804 3.06969 10.2107C4.26368 11.4843 5.933 12.6667 8 12.6667C10.067 12.6667 11.7363 11.4843 12.9303 10.2107C13.5212 9.5804 13.9764 8.94754 14.2837 8.47165C14.4034 8.28637 14.5 8.12591 14.5728 8C14.5 7.87409 14.4034 7.71363 14.2837 7.52835C13.9764 7.05246 13.5212 6.4196 12.9303 5.78929C11.7363 4.51571 10.067 3.33333 8 3.33333C5.933 3.33333 4.26368 4.51571 3.06969 5.78929C2.47878 6.4196 2.02362 7.05246 1.71628 7.52835C1.59662 7.71363 1.50002 7.87409 1.42716 8ZM15.3333 8C15.9296 7.70186 15.9295 7.70163 15.9294 7.70139L15.9283 7.69925L15.926 7.69469L15.9184 7.67988C15.9121 7.66752 15.9031 7.65021 15.8915 7.62829C15.8683 7.58447 15.8347 7.52215 15.7907 7.44399C15.7028 7.28776 15.5734 7.06768 15.4038 6.80498C15.0653 6.28088 14.5621 5.5804 13.903 4.87737C12.597 3.48429 10.5997 2 8 2C5.40033 2 3.40299 3.48429 2.09698 4.87737C1.43789 5.5804 0.93471 6.28088 0.596224 6.80498C0.426567 7.06768 0.297195 7.28776 0.209314 7.44399C0.165349 7.52215 0.131693 7.58447 0.108502 7.62829C0.0969045 7.65021 0.0879168 7.66752 0.0815586 7.67988L0.0739933 7.69469L0.0716926 7.69925L0.0709134 7.7008C0.0707909 7.70104 0.0703819 7.70186 0.666667 8L0.0703819 7.70186C-0.0234606 7.88954 -0.0234606 8.11046 0.0703819 8.29814L0.666667 8C0.0703819 8.29814 0.0702594 8.2979 0.0703819 8.29814L0.0716926 8.30075L0.0739933 8.30531L0.0815586 8.32012C0.0879168 8.33248 0.0969045 8.34979 0.108502 8.37171C0.131693 8.41553 0.165349 8.47785 0.209314 8.55601C0.297195 8.71224 0.426567 8.93232 0.596224 9.19502C0.93471 9.71913 1.43789 10.4196 2.09698 11.1226C3.40299 12.5157 5.40033 14 8 14C10.5997 14 12.597 12.5157 13.903 11.1226C14.5621 10.4196 15.0653 9.71913 15.4038 9.19502C15.5734 8.93232 15.7028 8.71224 15.7907 8.55601C15.8347 8.47785 15.8683 8.41553 15.8915 8.37171C15.9031 8.34979 15.9121 8.33248 15.9184 8.32012L15.926 8.30531L15.9283 8.30075L15.9291 8.2992C15.9292 8.29896 15.9296 8.29814 15.3333 8ZM15.3333 8L15.9296 8.29814C16.0235 8.11046 16.0232 7.88907 15.9294 7.70139L15.3333 8Z" fill="#7C8FA6"/>
    <path fill-rule="evenodd" clip-rule="evenodd" d="M7.99992 6.66659C7.26354 6.66659 6.66659 7.26354 6.66659 7.99992C6.66659 8.7363 7.26354 9.33325 7.99992 9.33325C8.7363 9.33325 9.33325 8.7363 9.33325 7.99992C9.33325 7.26354 8.7363 6.66659 7.99992 6.66659ZM5.33325 7.99992C5.33325 6.52716 6.52716 5.33325 7.99992 5.33325C9.47268 5.33325 10.6666 6.52716 10.6666 7.99992C10.6666 9.47268 9.47268 10.6666 7.99992 10.6666C6.52716 10.6666 5.33325 9.47268 5.33325 7.99992Z" fill="#7C8FA6"/>
  </g>
</svg>
