<svg width="32" height="32" viewBox="0 0 32 32" fill="none" xmlns="http://www.w3.org/2000/svg">
  <path fill-rule="evenodd" clip-rule="evenodd" d="M0.309487 16.7472C-0.103162 16.3345 -0.103162 15.6655 0.309487 15.2528L15.2528 0.309487C15.6655 -0.103162 16.3345 -0.103162 16.7472 0.309487L31.6905 15.2528C32.1032 15.6655 32.1032 16.3345 31.6905 16.7472C31.2779 17.1598 30.6088 17.1598 30.1962 16.7472L16 2.55099L2.55099 16L16 29.449L27.2075 18.2415C27.6202 17.8289 28.2892 17.8289 28.7018 18.2415C29.1145 18.6542 29.1145 19.3232 28.7018 19.7358L16.7472 31.6905C16.3345 32.1032 15.6655 32.1032 15.2528 31.6905L0.309487 16.7472Z" fill="#0089EC"/>
  <path fill-rule="evenodd" clip-rule="evenodd" d="M6.30879 15.2545C6.7205 14.8428 7.38803 14.8428 7.79974 15.2545L16 23.4548L23.4548 16L16 8.54522L10.7817 13.7636C10.3699 14.1753 9.70241 14.1753 9.2907 13.7636C8.87898 13.3519 8.87898 12.6843 9.2907 12.2726L15.2545 6.30879C15.6662 5.89707 16.3338 5.89707 16.7455 6.30879L25.6912 15.2545C26.1029 15.6662 26.1029 16.3338 25.6912 16.7455L16.7455 25.6912C16.5478 25.8889 16.2796 26 16 26C15.7204 26 15.4522 25.8889 15.2545 25.6912L6.30879 16.7455C5.89707 16.3338 5.89707 15.6662 6.30879 15.2545Z" fill="#F8C420"/>
  <path fill-rule="evenodd" clip-rule="evenodd" d="M12.306 15.3033C12.714 14.8989 13.3756 14.8989 13.7836 15.3033L16 17.5L18.2164 15.3033C18.6244 14.8989 19.286 14.8989 19.694 15.3033C20.102 15.7077 20.102 16.3634 19.694 16.7678L16.7388 19.6967C16.5429 19.8909 16.2771 20 16 20C15.7229 20 15.4571 19.8909 15.2612 19.6967L12.306 16.7678C11.898 16.3634 11.898 15.7077 12.306 15.3033Z" fill="#03B595"/>
  <path d="M16.7071 12.2929C17.0976 12.6834 17.0976 13.3166 16.7071 13.7071C16.3166 14.0976 15.6834 14.0976 15.2929 13.7071C14.9024 13.3166 14.9024 12.6834 15.2929 12.2929C15.6834 11.9024 16.3166 11.9024 16.7071 12.2929Z" fill="#F53D4D"/>
</svg>
