<svg width="400" height="400" viewBox="0 0 400 400" fill="none" xmlns="http://www.w3.org/2000/svg">
  <circle cx="200" cy="200" r="200" fill="url(#paint0_radial)"/>
  <path fill-rule="evenodd" clip-rule="evenodd" d="M110 299C110 298.33 110.303 297.671 110.888 297.026L177 150L223 156L289.037 296.945C289.671 297.616 290 298.302 290 299C290 306.732 249.706 313 200 313C150.294 313 110 306.732 110 299Z" fill="url(#paint1_linear)"/>
  <ellipse cx="200" cy="299" rx="90" ry="14" fill="url(#paint2_radial)"/>
  <g style="mix-blend-mode:hard-light" opacity="0.4">
    <path fill-rule="evenodd" clip-rule="evenodd" d="M111.517 296.427C119.284 289.924 155.946 285 200 285C244.055 285 280.716 289.924 288.483 296.427L216.587 174.476C213.125 168.604 206.816 165 200 165C193.184 165 186.875 168.604 183.414 174.476L111.517 296.427Z" fill="url(#paint3_linear)"/>
  </g>
  <g style="mix-blend-mode:hard-light" opacity="0.4">
    <path d="M111.522 296.422C119.3 289.922 155.955 285 200 285C244.045 285 280.7 289.922 288.478 296.422C257.86 244.577 142.14 244.577 111.522 296.422Z" fill="url(#paint4_linear)"/>
  </g>
  <path d="M154.5 268.5L169 217L248 247L230.5 293.5L154.5 268.5Z" fill="#889598"/>
  <rect x="184" y="204.211" width="44.8203" height="21.343" rx="2" transform="rotate(-15.8099 184 204.211)" fill="white"/>
  <path d="M184.545 206.135C184.244 205.073 184.862 203.967 185.924 203.666L225.2 192.545C226.263 192.244 227.369 192.862 227.67 193.924L228.578 197.134L185.454 209.345L184.545 206.135Z" fill="#F78749"/>
  <ellipse cx="225.149" cy="194.57" rx="0.20009" ry="0.200091" transform="rotate(-15.8099 225.149 194.57)" fill="white"/>
  <circle cx="225.367" cy="195.34" r="0.20009" transform="rotate(-15.8099 225.367 195.34)" fill="white"/>
  <ellipse cx="225.585" cy="196.11" rx="0.20009" ry="0.20009" transform="rotate(-15.8099 225.585 196.11)" fill="white"/>
  <rect opacity="0.3" x="185.061" y="205.02" width="0.533575" height="3.20145" rx="0.266787" transform="rotate(-15.8099 185.061 205.02)" fill="white"/>
  <path d="M148 279L145 265L244 298L234 304.5L148 279Z" fill="#D7D7D7"/>
  <path d="M175.5 227L160.5 270.5L225 292L240 250L175.5 227Z" fill="#66C1FF"/>
  <path d="M173.5 247L182 207L238.5 219L230.5 259L173.5 247Z" fill="white"/>
  <path d="M181.5 253.5L217.5 261.5" stroke="#24446A"/>
  <path d="M187.5 219L217.5 225.615M216.5 230L205.786 227.5M227.5 241.5L204.103 236.27M227 245.5L184.5 236M183.5 240.5L226 249.5M205 231.5L215.5 233.957M186.5 223L185 232L200.658 235.5L202.5 226.733L186.5 223ZM228.5 237L230 228.5L221 226.423L219.5 234.894L228.5 237Z" stroke="#7C8FA6"/>
  <path d="M207.5 176L201.5 182.5" stroke="#24446A"/>
  <path d="M237.5 224.5L181 212L182 207L238.5 219L237.5 224.5Z" fill="#0089EC"/>
  <path d="M237.196 134.459C206.869 131.217 197.92 130.26 165.604 126.804C167.601 108.133 185.245 94.7106 205.015 96.8245C224.785 98.9383 239.193 115.788 237.196 134.459Z" fill="#89DCE9"/>
  <path fill-rule="evenodd" clip-rule="evenodd" d="M229.242 133.609L237.196 134.459C239.193 115.788 224.785 98.9383 205.015 96.8245C203.671 96.6807 202.336 96.6088 201.016 96.6055C218.714 100.388 231.102 116.207 229.242 133.609Z" fill="#67D2E3"/>
  <path d="M198.854 154.444C153.817 150.678 117.809 131.739 118.233 127.773C118.763 122.815 156.526 112.811 202.671 118.751C249.028 122.702 283.822 140.464 283.292 145.422C282.868 149.388 243.67 160.285 198.854 154.444Z" fill="#C78DFF"/>
  <path d="M198.748 155.439C153.71 151.672 117.809 131.739 118.233 127.773C118.233 127.773 155.356 123.749 201.501 129.688C247.859 133.64 283.292 145.422 283.292 145.422C282.868 149.388 243.563 161.28 198.748 155.439Z" fill="#A459FF"/>
  <path d="M199.805 145.547C213.534 147.015 224.473 149.985 224.238 152.182L223.813 156.159C223.578 158.356 212.258 158.947 198.53 157.479C184.801 156.011 173.862 153.04 174.097 150.843L174.522 146.866C174.757 144.669 186.077 144.079 199.805 145.547Z" fill="#8941E0"/>
  <path d="M224.238 152.182C224.473 149.985 213.534 147.015 199.805 145.547C186.077 144.079 174.757 144.669 174.522 146.866" stroke="#5E21A9" stroke-linecap="round" stroke-linejoin="round" stroke-dasharray="3 3"/>
  <path d="M183.215 112.596L176.148 112.846C182.639 106.916 186.253 103.531 194.434 101.727C188.414 105.81 185.898 108.183 183.215 112.596Z" fill="#C4F5FD"/>
  <path d="M280.362 144.606C273.698 142.634 269.72 141.553 262.286 139.656" stroke="#5E21A9" stroke-linecap="round" stroke-linejoin="round"/>
  <path d="M249.519 136.783C241.618 135.435 238.19 134.566 230.289 133.218" stroke="#5E21A9" stroke-linecap="round" stroke-linejoin="round"/>
  <circle cx="227.5" cy="219.5" r="1.5" fill="white"/>
  <circle cx="231.5" cy="220.5" r="1.5" fill="white"/>
  <circle cx="235.5" cy="221.5" r="1.5" fill="white"/>
  <path d="M183 282L200.5 287.5" stroke="#24446A"/>
  <path d="M241 225.5L236 254.5" stroke="#24446A"/>
  <rect x="173.053" y="256.453" width="54" height="11.375" rx="4" transform="rotate(20.8756 173.053 256.453)" fill="#0089EC"/>
  <path d="M198.817 263.648C199.084 263.511 199.388 263.627 199.496 263.907L200.684 266.99L195.878 265.158L198.817 263.648Z" fill="#0089EC"/>
  <path fill-rule="evenodd" clip-rule="evenodd" d="M221.553 193.317C222.347 192.523 223.635 192.524 224.431 193.32L224.679 193.567C225.474 194.363 225.475 195.653 224.682 196.446L223.222 197.906C222.428 198.699 221.14 198.698 220.344 197.902L220.097 197.655C219.301 196.859 219.3 195.57 220.093 194.777L221.553 193.317Z" stroke="#24446A" stroke-linecap="round" stroke-linejoin="round"/>
  <path fill-rule="evenodd" clip-rule="evenodd" d="M215.776 199.094C216.57 198.3 217.858 198.301 218.654 199.097L218.902 199.345C219.697 200.14 219.698 201.43 218.905 202.223L217.445 203.683C216.651 204.476 215.363 204.476 214.567 203.679L214.32 203.432C213.524 202.636 213.523 201.347 214.316 200.554L215.776 199.094Z" stroke="#24446A" stroke-linecap="round" stroke-linejoin="round"/>
  <path d="M217.477 200.521L221.521 196.477" stroke="#24446A" stroke-linecap="round" stroke-linejoin="round"/>
  <circle cx="170" cy="270" r="7" fill="white"/>
  <circle cx="235.911" cy="269.911" r="6.75" transform="rotate(24.1365 235.911 269.911)" stroke="white"/>
  <path d="M238.467 264.208L236.87 267.772M233.355 275.615L234.953 272.05M241.615 272.467L238.05 270.87M230.208 267.355L233.772 268.953" stroke="white"/>
  <circle cx="235.911" cy="269.911" r="0.5" transform="rotate(24.1365 235.911 269.911)" fill="white" stroke="white" stroke-width="0.25"/>
  <path d="M184.993 183.515C185.442 183.175 186.057 183.617 185.877 184.151L184.262 188.936C184.182 189.174 184.265 189.436 184.468 189.582L188.412 192.418C188.854 192.736 188.638 193.438 188.092 193.455L183.077 193.614C182.838 193.622 182.628 193.778 182.551 194.006L180.909 198.871C180.731 199.4 179.982 199.391 179.822 198.859L178.417 194.184C178.343 193.938 178.113 193.772 177.855 193.78L172.976 193.936C172.421 193.953 172.174 193.246 172.619 192.909L176.709 189.804C176.9 189.659 176.981 189.41 176.912 189.181L175.468 184.376C175.31 183.853 175.906 183.425 176.349 183.743L180.293 186.579C180.495 186.725 180.77 186.721 180.97 186.569L184.993 183.515Z" fill="#FFEB39"/>
  <defs>
    <radialGradient id="paint0_radial" cx="0" cy="0" r="1" gradientUnits="userSpaceOnUse" gradientTransform="translate(200 200) rotate(90) scale(200)">
      <stop stop-color="#F0F8FE" stop-opacity="0"/>
      <stop offset="1" stop-color="#F0F8FE"/>
    </radialGradient>
    <linearGradient id="paint1_linear" x1="200" y1="150" x2="154.947" y2="283.23" gradientUnits="userSpaceOnUse">
      <stop stop-color="#F7DB49"/>
      <stop offset="1" stop-color="#F5953D"/>
    </linearGradient>
    <radialGradient id="paint2_radial" cx="0" cy="0" r="1" gradientUnits="userSpaceOnUse" gradientTransform="translate(200 299) rotate(90) scale(14 90)">
      <stop stop-color="#F5953D"/>
      <stop offset="1" stop-color="#F7DB49"/>
    </radialGradient>
    <linearGradient id="paint3_linear" x1="440.563" y1="427.853" x2="218.459" y2="-154.411" gradientUnits="userSpaceOnUse">
      <stop stop-color="#F78749"/>
      <stop offset="1" stop-color="#F53DA0"/>
    </linearGradient>
    <linearGradient id="paint4_linear" x1="440.549" y1="335.307" x2="418.557" y2="140.452" gradientUnits="userSpaceOnUse">
      <stop stop-color="#F78749"/>
      <stop offset="1" stop-color="#F53DA0"/>
    </linearGradient>
  </defs>
</svg>
