<?xml version="1.0" standalone="no"?>
<!DOCTYPE svg PUBLIC "-//W3C//DTD SVG 20010904//EN"
 "http://www.w3.org/TR/2001/REC-SVG-20010904/DTD/svg10.dtd">
<svg version="1.0" xmlns="http://www.w3.org/2000/svg"
 width="32px" height="32px" viewBox="0 0 167.000000 150.000000"
 preserveAspectRatio="xMidYMid meet">
<g transform="translate(0.000000,150.000000) scale(0.100000,-0.100000)" fill="#0089ec" stroke="none">
<path d="M793 1398 c-34 -57 -83 -148 -110 -203 -52 -107 -57 -115 -88 -115
-34 0 -127 -62 -162 -108 -17 -23 -39 -66 -47 -95 -75 -259 -75 -392 1 -541
18 -35 21 -51 13 -56 -15 -9 -215 -29 -313 -31 -42 -1 -77 -6 -77 -11 0 -5 14
-36 31 -70 l31 -61 233 5 c232 5 234 5 255 -17 41 -43 119 -78 189 -83 54 -3
87 2 181 28 164 46 232 81 315 165 39 38 77 85 84 102 7 18 16 33 20 33 9 0
119 -151 182 -248 59 -91 58 -91 109 -11 l32 49 -58 103 c-32 56 -87 144 -122
196 l-63 94 12 50 c21 90 -13 207 -82 277 -188 192 -312 260 -472 260 -56 0
-58 1 -51 23 11 38 104 239 136 295 17 29 29 55 27 56 -2 2 -36 7 -74 11 l-70
7 -62 -104z m240 -348 c140 -52 233 -149 244 -253 10 -97 3 -98 -88 -13 -101
95 -236 197 -316 239 -35 17 -63 38 -63 46 0 21 151 8 223 -19z m-487 -207
c-39 -135 -68 -315 -70 -440 -1 -127 -9 -138 -49 -70 -44 77 -62 145 -62 247
0 83 3 102 27 151 30 60 56 89 103 113 40 21 58 20 51 -1z m277 -39 c112 -56
327 -219 327 -247 0 -15 -91 -73 -185 -120 -92 -46 -245 -99 -263 -92 -34 13
8 495 43 495 4 0 39 -16 78 -36z m497 -424 c0 -28 -49 -101 -104 -155 -123
-121 -271 -161 -381 -104 -27 13 -50 29 -52 35 -2 5 45 25 104 43 141 43 306
112 368 155 54 37 65 42 65 26z"/>
</g>
</svg>
