<svg width="22" height="22" viewBox="0 0 22 22" fill="none" xmlns="http://www.w3.org/2000/svg">
<mask id="mask23" masktype="alpha" maskUnits="userSpaceOnUse" x="0" y="0" width="22" height="22">
<path fill-rule="evenodd" clip-rule="evenodd" d="M16.2929 0.292893C16.6834 -0.0976311 17.3166 -0.0976311 17.7071 0.292893L21.7071 4.29289C22.0976 4.68342 22.0976 5.31658 21.7071 5.70711L19.4142 8L18 9.41421L5.70711 21.7071C5.51957 21.8946 5.26522 22 5 22H1C0.447715 22 0 21.5523 0 21V17C0 16.7348 0.105357 16.4804 0.292893 16.2929L12.5858 4L14 2.58579L16.2929 0.292893ZM14 5.41421L2 17.4142V20H4.58579L16.5858 8L14 5.41421ZM18 6.58579L15.4142 4L17 2.41421L19.5858 5L18 6.58579ZM10 21C10 20.4477 10.4477 20 11 20H21C21.5523 20 22 20.4477 22 21C22 21.5523 21.5523 22 21 22H11C10.4477 22 10 21.5523 10 21Z" fill="#7C8FA6"/>
</mask>
<g mask="url(#mask23)">
<rect width="22" height="22" fill="#7C8FA6"/>
</g>
</svg>
