<svg width="22" height="22" viewBox="0 0 22 22" fill="none" xmlns="http://www.w3.org/2000/svg">
  <rect opacity="0.01" width="22" height="22" fill="#7C8FA6"/>
  <mask id="redo_icon" masktype="alpha" maskUnits="userSpaceOnUse" x="2" y="0" width="18" height="22">
    <path fill-rule="evenodd" clip-rule="evenodd" d="M12.6173 0.0761497C12.2436 0.230931 12 0.595567 12 1.00003V4.02578C9.03962 4.18074 6.63599 5.02909 4.91303 6.40987C2.98332 7.95633 1.97387 10.1227 2.0005 12.5112C2.04923 16.8822 5.65302 22 13.1112 22C13.6378 22 14.0742 21.5916 14.109 21.066C14.1438 20.5405 13.765 20.0781 13.2429 20.0087C10.9141 19.6992 9.42263 18.6954 8.54282 17.5144C7.64939 16.315 7.34008 14.8713 7.49264 13.6212C7.62594 12.5288 8.08022 11.6671 8.88748 11.0595C9.56697 10.5481 10.5695 10.1625 12 10.0407V13C12 13.4045 12.2436 13.7691 12.6173 13.9239C12.991 14.0787 13.4211 13.9931 13.7071 13.7071L19.7071 7.70714C20.0976 7.31661 20.0976 6.68345 19.7071 6.29292L13.7071 0.292922C13.4211 0.00692445 12.991 -0.0786313 12.6173 0.0761497ZM17.5858 7.00003L14 10.5858V9.00003C14 8.44774 13.5523 8.00003 13 8.00003C10.7515 8.00003 8.96996 8.49432 7.68481 9.46154C6.37898 10.4443 5.69607 11.8326 5.50736 13.3789C5.34658 14.6964 5.55446 16.1491 6.19967 17.4886C4.7117 16.0191 4.01873 14.1349 4.00038 12.4889C3.98063 10.7178 4.7117 9.13421 6.16375 7.97055C7.63243 6.79354 9.90321 6.00003 13 6.00003C13.5523 6.00003 14 5.55231 14 5.00003V3.41424L17.5858 7.00003Z" fill="#7C8FA6"/>
  </mask>
  <g mask="url(#redo_icon)">
    <rect width="22" height="22" fill="#7C8FA6"/>
  </g>
</svg>
