<svg width="22" height="22" viewBox="0 0 22 22" fill="none" xmlns="http://www.w3.org/2000/svg">
    <rect opacity="0.01" width="22" height="22" fill="#7C8FA6"/>
    <mask id="mask2-1" masktype="alpha" maskUnits="userSpaceOnUse" x="0" y="0" width="22" height="22">
        <path fill-rule="evenodd" clip-rule="evenodd" d="M11 20C15.9706 20 20 15.9706 20 11C20 6.02944 15.9706 2 11 2C6.02944 2 2 6.02944 2 11C2 15.9706 6.02944 20 11 20ZM11 22C13.6775 22 16.1315 21.0434 18.039 19.4533L20.0707 21.4849C20.4612 21.8754 21.0943 21.8754 21.4849 21.4849C21.8754 21.0944 21.8754 20.4612 21.4849 20.0707L19.4533 18.0391C21.0434 16.1316 22 13.6775 22 11C22 4.92487 17.0751 0 11 0C4.92487 0 0 4.92487 0 11C0 17.0751 4.92487 22 11 22ZM12 7.33334C12 6.78106 11.5523 6.33334 11 6.33334C10.4477 6.33334 9.99998 6.78106 9.99998 7.33334V10H7.33331C6.78103 10 6.33331 10.4477 6.33331 11C6.33331 11.5523 6.78103 12 7.33331 12H9.99998V14.6667C9.99998 15.219 10.4477 15.6667 11 15.6667C11.5523 15.6667 12 15.219 12 14.6667V12H14.6666C15.2189 12 15.6666 11.5523 15.6666 11C15.6666 10.4477 15.2189 10 14.6666 10H12V7.33334Z" fill="#7C8FA6"/>
    </mask>
    <g mask="url(#mask2-1)">
        <rect width="22" height="22" fill="#7C8FA6"/>
    </g>
</svg>
