<svg width="22" height="22" viewBox="0 0 22 22" fill="none" xmlns="http://www.w3.org/2000/svg">
  <rect opacity="0.01" width="22" height="22" fill="#7C8FA6"/>
  <mask id="snap_to_grid_off" masktype="alpha" maskUnits="userSpaceOnUse" x="0" y="0" width="22" height="22">
    <path fill-rule="evenodd" clip-rule="evenodd" d="M10 2H12V4H10V2ZM8 2C8 0.89543 8.89543 0 10 0H12C13.1046 0 14 0.895431 14 2V4C14 5.10457 13.1046 6 12 6V8H12.8377L16 6.94591V5C16 3.89543 16.8954 3 18 3H20C21.1046 3 22 3.89543 22 5V7C22 8.10457 21.1046 9 20 9H18C17.6304 9 17.2843 8.89977 16.9873 8.725L13.9815 9.72692C13.9937 9.81621 14 9.90737 14 10V12C14 12.1336 13.9869 12.2642 13.9619 12.3904L16.4296 13.7614C16.7959 13.2976 17.3632 13 18 13H20C21.1046 13 22 13.8954 22 15V17C22 18.1046 21.1046 19 20 19H18C16.8954 19 16 18.1046 16 17V15.8106L12.7409 14H12V16C13.1046 16 14 16.8954 14 18V20C14 21.1046 13.1046 22 12 22H10C8.89543 22 8 21.1046 8 20V18C8 16.8954 8.89543 16 10 16V14H9.25913L6 15.8106V17C6 18.1046 5.10457 19 4 19H2C0.89543 19 0 18.1046 0 17V15C0 13.8954 0.895431 13 2 13H4C4.63682 13 5.20412 13.2976 5.5704 13.7614L8.03809 12.3904C8.0131 12.2642 8 12.1336 8 12V10C8 9.90737 8.0063 9.81621 8.01849 9.72692L5.01274 8.725C4.7157 8.89977 4.36956 9 4 9H2C0.89543 9 0 8.10457 0 7V5C0 3.89543 0.895431 3 2 3H4C5.10457 3 6 3.89543 6 5V6.94591L9.16228 8H10V6C8.89543 6 8 5.10457 8 4V2ZM10 12H11H12V10H11H10V12ZM4 5H2L2 7H4V5ZM20 5H18V7H20V5ZM2 15H4V17H2L2 15ZM18 15H20V17H18V15ZM12 18H10V20H12V18Z" fill="#ffffff"/>
  </mask>
  <g mask="url(#snap_to_grid_off)">
    <rect width="22" height="22" fill="#7C8FA6"/>
  </g>
</svg>
