<svg width="22" height="22" viewBox="0 0 22 22" fill="none" xmlns="http://www.w3.org/2000/svg">
  <path fill-rule="evenodd" clip-rule="evenodd" d="M20 2H16V6H20V2ZM16 0C14.8954 0 14 0.895431 14 2V3H8V2C8 0.895431 7.10457 0 6 0H2C0.895431 0 0 0.895431 0 2V6C0 7.10457 0.895431 8 2 8H3L3 14H2C0.895431 14 0 14.8954 0 16V20C0 21.1046 0.895431 22 2 22H6C7.10457 22 8 21.1046 8 20V19H14V20C14 21.1046 14.8954 22 16 22H20C21.1046 22 22 21.1046 22 20V16C22 14.8954 21.1046 14 20 14H19V8H20C21.1046 8 22 7.10457 22 6V2C22 0.895431 21.1046 0 20 0H16ZM14 17V16C14 14.8954 14.8954 14 16 14H17V8H16C14.8954 8 14 7.10457 14 6V5H8V6C8 7.10457 7.10457 8 6 8H5L5 14H6C7.10457 14 8 14.8954 8 16V17H14ZM6 16V20H2V16H6ZM20 20H16V16H20V20ZM2 2H6V6H2V2Z" fill="#7C8FA6"/>
</svg>
