<svg width="16" height="16" viewBox="0 0 16 16" fill="none" xmlns="http://www.w3.org/2000/svg">
  <path
    d="M7.45582 0.40382C7.62121 -0.134608 8.37879 -0.134606 8.54418 0.403822L10.0273 5.23206C10.101 5.47214 10.3217 5.63588 10.5715 5.63588H15.4293C15.9741 5.63588 16.208 6.33148 15.7751 6.6642L11.7966 9.72173C11.6069 9.86751 11.5277 10.1168 11.5982 10.3462L13.1061 15.2552C13.2698 15.7882 12.6568 16.2184 12.2162 15.8797L8.34577 12.9052C8.14163 12.7484 7.85837 12.7484 7.65423 12.9052L3.78383 15.8797C3.34316 16.2184 2.73016 15.7882 2.89389 15.2552L4.40179 10.3462C4.47227 10.1168 4.39306 9.86751 4.20337 9.72173L0.224918 6.6642C-0.208021 6.33148 0.0258681 5.63588 0.570682 5.63588H5.42854C5.67833 5.63588 5.89897 5.47214 5.97272 5.23205L7.45582 0.40382Z"
    fill="#FFEB39"
  />
</svg>
