<svg width="24" height="24" viewBox="0 0 24 24" fill="none" xmlns="http://www.w3.org/2000/svg">
  <path fill-rule="evenodd" clip-rule="evenodd" d="M8.54643 0.193557C8.96009 -0.0444874 9.43201 0.00407859 9.43201 0.00407859H17.9975C20.2063 0.00407859 21.9967 1.7947 21.9967 4.0034V12.002C21.9967 12.5542 21.5491 13.0019 20.9969 13.0019C20.4447 13.0019 19.997 12.5542 19.997 12.002V4.0034C19.997 2.89896 19.1018 2.00374 17.9975 2.00374H9.99874V5.00323C9.99874 7.21199 8.20818 9.00255 5.99942 9.00255H3.99976V20.0007C3.99976 21.1051 4.89503 22.0003 5.99942 22.0003H11.9984C12.5506 22.0003 12.9982 22.448 12.9982 23.0002C12.9982 23.5524 12.5506 24 11.9984 24H5.99942C3.79065 24 2.0001 22.2094 2.0001 20.0007V8.85834C2.0001 8.85834 1.99141 8.3895 2.13901 7.79912C2.28661 7.20873 2.98986 6.58559 2.98986 6.58559L7.95215 0.662393C7.95215 0.662393 8.13277 0.431601 8.54643 0.193557ZM5.17378 7.00289H5.99942C7.1038 7.00289 7.99908 6.10761 7.99908 5.00323V3.70671L5.17378 7.00289Z" fill="#7C8FA6"/>
  <path d="M12.998 18.5008H17.4973M21.9965 18.5008H17.4973M17.4973 18.5008V14.0015M17.4973 18.5008V23" stroke="#7C8FA6" stroke-width="2" stroke-linecap="round" stroke-linejoin="round"/>
</svg>
