<svg width="22" height="22" viewBox="0 0 22 22" fill="none" xmlns="http://www.w3.org/2000/svg">
  <rect opacity="0.01" width="22" height="22" fill="#7C8FA6"/>
  <mask id="toolbar_fullscreen" masktype="alpha" maskUnits="userSpaceOnUse" x="0" y="0" width="22" height="22">
    <path fill-rule="evenodd" clip-rule="evenodd" d="M1 8.69643C1.55228 8.69643 2 8.24871 2 7.69643V3.41421L6.29289 7.70711C6.68342 8.09763 7.31658 8.09763 7.70711 7.70711C8.09763 7.31658 8.09763 6.68342 7.70711 6.2929L3.41421 2H7.69643C8.24871 2 8.69643 1.55228 8.69643 1C8.69643 0.447715 8.24871 0 7.69643 0H1C0.447715 0 0 0.447715 0 1V7.69643C0 8.24871 0.447715 8.69643 1 8.69643ZM2 14.3036C2 13.7513 1.55228 13.3036 1 13.3036C0.447715 13.3036 0 13.7513 0 14.3036V21C0 21.5523 0.447715 22 1 22H7.69643C8.24871 22 8.69643 21.5523 8.69643 21C8.69643 20.4477 8.24871 20 7.69643 20H3.41421L7.70711 15.7071C8.09763 15.3166 8.09763 14.6834 7.70711 14.2929C7.31658 13.9024 6.68342 13.9024 6.29289 14.2929L2 18.5858V14.3036ZM20 14.3036C20 13.7513 20.4477 13.3036 21 13.3036C21.5523 13.3036 22 13.7513 22 14.3036V21C22 21.5523 21.5523 22 21 22H14.3036C13.7513 22 13.3036 21.5523 13.3036 21C13.3036 20.4477 13.7513 20 14.3036 20H18.5858L14.2929 15.7071C13.9024 15.3166 13.9024 14.6834 14.2929 14.2929C14.6834 13.9024 15.3166 13.9024 15.7071 14.2929L20 18.5858V14.3036ZM20 7.69643C20 8.24871 20.4477 8.69643 21 8.69643C21.5523 8.69643 22 8.24871 22 7.69643V1C22 0.447715 21.5523 0 21 0H14.3036C13.7513 0 13.3036 0.447715 13.3036 1C13.3036 1.55228 13.7513 2 14.3036 2H18.5858L14.2929 6.2929C13.9024 6.68342 13.9024 7.31658 14.2929 7.70711C14.6834 8.09763 15.3166 8.09763 15.7071 7.70711L20 3.41421V7.69643Z" fill="#ffffff"/>
  </mask>
  <g mask="url(#toolbar_fullscreen)">
    <rect width="22" height="22" fill="#7C8FA6"/>
  </g>
</svg>
