<svg width="22" height="22" viewBox="0 0 22 22" fill="none" xmlns="http://www.w3.org/2000/svg">
    <rect opacity="0.01" width="22" height="22" fill="#7C8FA6"/>
  <mask id="toolbar_unfullscreen" masktype="alpha" maskUnits="userSpaceOnUse" x="0" y="0" width="22" height="22">
    <path fill-rule="evenodd" clip-rule="evenodd" d="M6.99999 1.30353C6.99999 0.751243 7.4477 0.303528 7.99999 0.303528C8.55227 0.303528 8.99999 0.751243 8.99999 1.30353V7.99996C8.99999 8.55224 8.55227 8.99996 7.99999 8.99996H1.30356C0.751274 8.99996 0.303558 8.55224 0.303558 7.99996C0.303558 7.44767 0.751274 6.99996 1.30356 6.99996H5.58577L1.29288 2.70706C0.902356 2.31654 0.902356 1.68337 1.29288 1.29285C1.6834 0.902323 2.31657 0.902323 2.70709 1.29285L6.99999 5.58574V1.30353ZM15 1.30353C15 0.751243 14.5523 0.303528 14 0.303528C13.4477 0.303528 13 0.751243 13 1.30353V7.99996C13 8.55224 13.4477 8.99996 14 8.99996H20.6964C21.2487 8.99996 21.6964 8.55224 21.6964 7.99996C21.6964 7.44767 21.2487 6.99996 20.6964 6.99996H16.4142L20.7071 2.70706C21.0976 2.31654 21.0976 1.68337 20.7071 1.29285C20.3166 0.902323 19.6834 0.902323 19.2929 1.29285L15 5.58574V1.30353ZM14 21.6962C14.5523 21.6962 15 21.2485 15 20.6962V16.414L19.2929 20.7069C19.6834 21.0974 20.3166 21.0974 20.7071 20.7069C21.0976 20.3163 21.0976 19.6832 20.7071 19.2927L16.4142 14.9998H20.6964C21.2487 14.9998 21.6964 14.552 21.6964 13.9998C21.6964 13.4475 21.2487 12.9998 20.6964 12.9998H14C13.4477 12.9998 13 13.4475 13 13.9998V20.6962C13 21.2485 13.4477 21.6962 14 21.6962ZM6.99999 20.6964C6.99999 21.2487 7.4477 21.6964 7.99999 21.6964C8.55227 21.6964 8.99999 21.2487 8.99999 20.6964V14C8.99999 13.4477 8.55227 13 7.99999 13H1.30356C0.751274 13 0.303558 13.4477 0.303558 14C0.303558 14.5522 0.751274 15 1.30356 15H5.58577L1.29288 19.2929C0.902356 19.6834 0.902356 20.3165 1.29288 20.7071C1.6834 21.0976 2.31657 21.0976 2.70709 20.7071L6.99999 16.4142V20.6964Z" fill="#ffffff"/>
  </mask>
  <g mask="url(#toolbar_unfullscreen)">
    <rect width="22" height="22" fill="#7C8FA6"/>
    <rect width="22" height="22" fill="#7C8FA6"/>
  </g>
</svg>
